<?xml version="1.0" standalone="no"?>
<!DOCTYPE svg PUBLIC "-//W3C//DTD SVG 20010904//EN"
 "http://www.w3.org/TR/2001/REC-SVG-20010904/DTD/svg10.dtd">
<svg version="1.0" xmlns="http://www.w3.org/2000/svg"
 width="706.000000pt" height="800.000000pt" viewBox="0 0 706.000000 800.000000"
 preserveAspectRatio="xMidYMid meet">

<g transform="translate(0.000000,800.000000) scale(0.100000,-0.100000)"
fill="#000000" stroke="none">
<path d="M3034 7967 c-36 -39 -74 -94 -74 -105 0 -7 -15 -33 -34 -59 -38 -54
-86 -140 -86 -156 0 -6 -8 -20 -19 -31 -10 -12 -27 -46 -37 -76 -10 -30 -35
-81 -55 -112 -20 -31 -42 -78 -48 -105 -7 -26 -21 -70 -32 -97 -10 -27 -19
-58 -19 -70 0 -12 -4 -26 -9 -31 -13 -15 -81 -179 -81 -196 0 -9 -13 -56 -29
-105 -16 -49 -42 -141 -57 -204 -14 -63 -30 -122 -34 -130 -4 -8 -11 -44 -14
-80 -4 -35 -8 -66 -10 -67 -2 -2 -48 2 -102 8 -113 13 -167 15 -208 9 -27 -5
-29 -2 -50 61 -11 36 -29 77 -39 92 -9 14 -17 31 -17 36 0 6 -12 36 -26 68
-15 31 -37 85 -50 120 -13 35 -28 71 -33 80 -5 10 -25 52 -45 93 -19 41 -69
131 -110 200 -42 69 -91 152 -111 186 -19 33 -63 97 -97 142 -35 45 -83 110
-108 144 -24 35 -63 86 -85 115 -22 28 -55 72 -73 97 -37 50 -69 67 -86 44 -6
-8 -18 -17 -27 -20 -20 -8 -89 -185 -89 -228 0 -7 -31 -91 -69 -188 -38 -97
-74 -202 -80 -232 -7 -30 -16 -73 -21 -95 -26 -116 -33 -591 -12 -854 15 -196
61 -375 158 -617 l26 -65 -22 -62 c-19 -53 -34 -116 -67 -279 -6 -34 -11 -34
-116 -7 -112 29 -323 56 -383 49 -27 -3 -68 -1 -92 4 -46 10 -235 -5 -305 -25
-35 -9 -57 -32 -44 -45 3 -3 36 2 74 12 53 13 110 18 253 18 217 1 390 -19
519 -61 82 -26 102 -42 122 -102 6 -19 34 -67 62 -107 28 -41 48 -75 46 -77
-21 -15 -231 -97 -247 -97 -7 0 -20 -4 -30 -10 -9 -5 -80 -40 -157 -78 -135
-66 -372 -202 -465 -267 -50 -35 -64 -65 -31 -65 11 0 23 5 26 11 7 11 122 86
250 164 163 98 386 205 508 245 190 61 165 63 249 -20 83 -82 215 -183 333
-255 104 -63 156 -88 246 -121 41 -14 80 -31 87 -36 26 -22 2 -158 -47 -262
-16 -34 -32 -72 -36 -86 -4 -14 -11 -29 -15 -35 -4 -5 -20 -41 -35 -80 -15
-38 -52 -121 -82 -184 -30 -62 -70 -164 -89 -225 -20 -61 -45 -136 -56 -166
-24 -65 -48 -145 -55 -180 -2 -14 -15 -79 -28 -145 -13 -66 -27 -147 -31 -180
-3 -33 -12 -70 -20 -82 -8 -13 -14 -49 -14 -91 0 -37 -6 -119 -14 -182 -8 -63
-14 -142 -14 -175 0 -74 -15 -180 -31 -219 -11 -27 -50 -92 -113 -189 -15 -23
-28 -47 -28 -54 0 -7 -13 -34 -29 -61 -15 -26 -34 -66 -41 -88 -7 -21 -16 -43
-20 -49 -24 -30 -63 -157 -66 -215 -2 -36 -8 -85 -13 -110 -17 -75 -22 -126
-28 -337 -5 -188 -4 -206 17 -271 12 -39 44 -108 71 -153 43 -70 50 -88 43
-114 -3 -16 -7 -56 -6 -88 0 -60 18 -93 64 -118 31 -17 142 -27 208 -19 283
35 347 44 358 53 22 18 31 -5 21 -57 -19 -100 30 -139 190 -152 132 -11 319
28 382 79 14 12 33 27 42 32 12 8 16 36 20 124 3 62 9 117 14 121 4 5 34 15
65 22 55 14 58 14 76 -6 11 -12 22 -32 25 -46 35 -162 77 -270 105 -270 10 0
22 -3 26 -7 16 -16 27 -16 171 -4 124 10 220 41 318 104 56 36 67 50 47 62 -5
3 -10 19 -10 34 0 32 8 35 130 52 106 14 191 42 253 82 65 42 73 68 34 113
l-24 27 25 51 c14 28 31 71 38 96 7 25 22 72 34 105 23 66 45 198 42 258 -2
37 -1 38 72 72 40 19 82 35 93 35 12 0 23 6 26 13 2 7 31 25 63 41 128 62 473
263 593 345 101 70 314 270 395 372 33 41 81 97 106 124 26 28 53 60 61 72 8
12 41 56 74 98 72 93 117 156 182 253 26 40 63 94 80 120 18 26 45 67 60 92
100 162 351 451 448 515 28 18 63 45 79 59 16 14 37 26 47 26 10 0 26 11 35
25 14 21 206 145 225 145 4 0 23 9 43 20 19 12 56 25 83 29 26 5 62 14 78 19
17 6 53 18 80 26 290 87 410 155 385 221 -6 15 -10 44 -10 65 0 57 -20 142
-38 162 -25 30 -71 36 -157 22 -44 -7 -96 -17 -115 -23 -19 -6 -87 -24 -150
-41 -107 -28 -145 -40 -195 -60 -11 -5 -32 -11 -47 -14 -14 -3 -40 -17 -56
-31 -17 -14 -36 -25 -44 -25 -8 0 -43 -19 -77 -42 -35 -24 -78 -51 -95 -61
-17 -11 -42 -29 -56 -42 -14 -12 -36 -28 -50 -35 -51 -27 -360 -320 -360 -342
0 -4 -37 -50 -82 -102 -105 -119 -221 -261 -251 -306 -13 -19 -37 -55 -53 -80
-15 -25 -56 -76 -89 -115 -33 -38 -73 -88 -87 -110 -15 -22 -58 -74 -95 -116
-114 -127 -164 -186 -181 -212 -10 -14 -41 -53 -70 -88 -29 -35 -78 -95 -110
-133 -31 -38 -79 -87 -107 -109 -27 -21 -55 -47 -62 -57 -7 -9 -45 -37 -85
-60 -40 -24 -91 -55 -113 -69 -72 -46 -339 -171 -408 -192 -102 -30 -104 -29
-142 76 -18 50 -38 104 -45 120 -7 17 -16 39 -20 50 -4 11 -28 63 -53 115 -24
52 -62 134 -85 181 -31 67 -56 104 -110 158 l-70 72 -6 102 c-4 56 -13 134
-21 172 -7 39 -18 115 -25 170 -6 55 -20 136 -31 180 -11 44 -25 105 -30 135
-5 30 -16 80 -24 110 -9 30 -23 91 -31 135 -18 94 -38 160 -70 233 -13 29 -24
56 -24 61 0 14 -88 203 -107 230 -10 14 -31 56 -47 93 -15 37 -43 93 -62 124
-19 31 -34 62 -34 68 0 6 -7 22 -16 35 -15 21 -54 148 -54 176 0 6 48 40 108
76 164 98 258 166 322 233 88 92 105 116 151 201 24 43 51 87 61 97 10 10 18
22 18 27 0 20 142 34 520 52 278 14 393 15 493 5 66 -7 77 -5 77 7 0 9 -8 18
-18 21 -32 10 -340 15 -399 6 -32 -4 -159 -11 -283 -14 -124 -3 -261 -9 -305
-12 -79 -7 -80 -7 -62 13 9 11 17 33 18 49 0 16 6 59 12 96 9 52 18 71 39 87
14 12 29 21 32 21 4 0 41 22 84 48 90 56 303 161 400 198 37 14 100 31 141 38
72 12 98 27 67 39 -25 10 -148 -12 -221 -40 -38 -15 -167 -75 -286 -135 -119
-59 -221 -108 -226 -108 -6 0 -13 30 -15 68 -3 53 -13 85 -47 154 -23 49 -39
93 -36 99 4 6 -1 16 -10 23 -16 12 -17 16 -2 62 8 27 18 60 22 74 3 14 12 48
20 75 7 28 16 106 20 175 5 113 9 164 21 310 2 25 4 115 4 200 1 159 -7 216
-55 430 -13 58 -31 141 -40 185 -9 44 -23 107 -30 140 -8 33 -16 80 -19 105
-6 51 -20 117 -36 175 -6 22 -15 58 -21 80 -14 61 -78 216 -92 226 -5 4 -14
17 -21 30 -15 32 -37 34 -62 6z m83 -94 c1 -10 13 -48 27 -85 33 -87 86 -293
86 -336 0 -30 20 -127 57 -266 8 -32 16 -70 18 -85 4 -27 36 -189 54 -273 19
-86 22 -240 11 -428 -6 -102 -13 -234 -14 -295 -2 -74 -11 -136 -25 -190 -33
-120 -52 -175 -59 -175 -4 0 -51 45 -105 100 -90 91 -97 101 -83 116 17 17 20
35 16 129 -2 62 -8 95 -34 180 -8 28 -24 80 -35 117 -30 103 -115 262 -174
329 l-39 42 7 71 c4 39 13 114 21 166 8 52 19 127 23 165 5 39 12 77 15 85 3
8 13 49 20 90 25 129 83 295 167 478 16 35 29 68 29 73 0 17 16 9 17 -8z
m-1947 -96 c0 -7 13 -28 30 -47 16 -19 29 -38 30 -43 0 -8 36 -87 111 -242 61
-128 75 -160 89 -215 7 -25 16 -49 20 -55 4 -5 22 -50 38 -100 17 -49 37 -106
46 -126 17 -40 16 -43 -41 -87 -25 -20 -40 -38 -37 -47 3 -8 -6 -21 -21 -31
-24 -16 -139 -163 -174 -224 -30 -51 -61 -120 -61 -135 0 -9 -9 -35 -19 -58
-43 -94 -65 -221 -66 -367 0 -109 3 -132 24 -182 l23 -58 -38 -60 c-32 -49
-43 -60 -63 -58 -20 3 -28 15 -48 73 -43 129 -74 230 -84 273 -5 24 -11 47
-14 51 -2 5 -12 98 -22 207 -26 293 -17 677 19 839 30 132 61 230 106 337 27
64 57 148 65 186 23 102 87 227 87 169z m427 -1012 c3 -20 10 -38 14 -41 5 -3
9 -20 9 -38 0 -17 4 -36 9 -41 12 -14 66 -188 81 -263 15 -72 10 -82 -50 -104
-95 -36 -219 -141 -325 -277 -28 -35 -61 -78 -75 -95 -14 -17 -34 -43 -43 -58
-10 -16 -22 -28 -27 -28 -5 0 -12 12 -15 28 -4 15 -12 41 -19 57 -16 38 -3
216 24 325 56 228 162 422 302 551 l72 67 19 -24 c10 -13 21 -40 24 -59z
m1313 -203 c16 -30 34 -70 41 -90 6 -21 15 -41 19 -47 5 -5 25 -59 46 -120 32
-96 37 -125 41 -227 3 -69 1 -118 -4 -118 -5 0 -18 10 -29 23 -11 12 -49 49
-85 82 -36 33 -83 87 -104 120 -22 33 -43 62 -47 63 -13 6 -9 221 7 327 8 55
15 105 15 110 1 17 69 -67 100 -123z m30 -840 c69 -34 119 -104 155 -217 34
-106 40 -165 24 -238 -29 -140 -83 -218 -180 -262 -64 -28 -66 -28 -206 -10
-80 10 -135 75 -171 200 -43 146 -52 253 -29 308 8 18 20 50 27 72 28 87 100
149 199 171 71 16 112 10 181 -24z m-1205 -53 c99 -27 132 -43 178 -91 63 -64
78 -103 85 -210 5 -98 -9 -192 -40 -253 -34 -65 -95 -141 -132 -165 -78 -48
-271 -33 -366 28 -146 95 -139 483 13 629 83 80 141 94 262 62z m590 -489 c3
-5 15 -10 26 -10 27 0 24 -15 -8 -38 -42 -29 -133 -21 -133 12 0 27 101 59
115 36z"/>
<path d="M2629 5508 c-29 -53 -11 -278 24 -300 21 -14 57 -8 76 11 31 31 44
95 36 183 -7 76 -8 80 -43 103 -45 31 -78 32 -93 3z"/>
<path d="M1736 5528 c-37 -58 -27 -281 15 -340 25 -35 49 -36 87 -3 35 29 52
91 52 188 0 72 -29 157 -56 168 -40 16 -83 10 -98 -13z"/>
</g>
</svg>
